<?xml version="1.0" encoding="UTF-8" standalone="no"?>
<svg id="svg4171" xmlns:rdf="http://www.w3.org/1999/02/22-rdf-syntax-ns#" xmlns="http://www.w3.org/2000/svg" height="268mm" viewBox="0 0 1658.2677 949.60698" width="468mm" version="1.1" xmlns:cc="http://creativecommons.org/ns#" xmlns:dc="http://purl.org/dc/elements/1.1/">
<defs id="defs7">
<radialGradient id="radialGradient4209" gradientUnits="userSpaceOnUse" cy="462.4" cx="527.2" gradientTransform="matrix(3.664 -3.143 .7131 .7808 -1734 1725)" r="763.8">
<stop id="stop4205" stop-color="#8a6f91" offset="0"/>
<stop id="stop4207" stop-color="#8a6f91" stop-opacity="0" offset="1"/>
</radialGradient>
</defs>
<g id="layer1" fill="#8a6f91" transform="matrix(-1.125 .04441 -.01501 .7077 1777 209.8)">
<path id="path4702-8-1" opacity=".7407" fill="url(#radialGradient4209)" d="m101.4 102.1c0.4869 0.218 6.195 36.69 7.653 43.74 9.079 43.9 24.93 74.92 49.47 96.73 31.78 28.26 72.27 38.24 136.9 33.76 22.6-1.566 97.13-17.57 131.9-28.31 64.31-19.87 112.6-37.3 233.8-84.52 217.6-84.76 285.8-109.7 383.4-140.1 77.3-24.05 129.6-37.84 205.4-54.15 102.6-22.07 186.3-32.47 278.4-34.69 20.08-0.4825 50.64-2.416 53.39-0.4761 0.06 0.5358-0.9786 63.13-1.052 63.23-0.048 0.07134 0.8164 3.378-3.839 0.1106-20.72-8.547-48.23-16.79-72.57-21.79-128.6-26.41-294.1-2.769-516.2 73.75-87.24 30.05-168.1 61.75-318.3 124.8-121.4 50.92-158.7 66.41-190 78.94-69.35 27.74-123.6 47.19-169.3 60.7-25.12 7.429-77.54 19-94.1 20.77-37.48 4.005-64.74 1.559-86.16-7.722-10.62-4.6-24.74-15.61-29.52-22.97l-2.35-4.838 0.9378-78.2c0.5776-42.74 1.088-69.36 1.118-72.33 0.0175-1.715 0.1933-8.954 0.1823-8.805zm1104-112.2c119.1-25.33 216.8-29 299.2-12.01 18.9 3.895 58.22 16.11 73.33 22.79 3.247 1.305 2.529 1.136 2.537 3.995-0.055 5.798 0.017 30.63-0.6851 59.87l-0.2035 11.82-3.8-3.176c-34-19.9-80.96-39.25-121.4-50.67-76.8-21.72-154-26.89-247.7-16.6-31.6 3.457-121 22.61-158.1 33.85-90.11 27.3-193.2 68.76-304.9 122.7-31 14.96-108.4 53.19-154.4 76.25-61.88 30.99-143 70.53-173.4 84.53-105.1 48.4-181.2 76.78-257.1 95.96-10.98 2.773-60.53 9.45-60.87 8.961-0.09669-0.1384-0.07258-12.01 0.2739-41.73 0.3464-29.72 1.161-67.13 1.228-72.54l0.2723-9.685 6.616 7.75c10.71 10.81 20.02 16.25 35.91 21.06 43.44 13.17 109.6 3.783 210.5-29.85 61.78-20.59 113.4-40.91 265.3-104.5 177.6-74.4 239.4-99.35 312.3-126 103.6-37.96 195.1-65.42 276.6-82.75zm-78.59 32.18c9.979-2.132 19.96-4.128 29.99-5.995 143.6-26.72 269.5-12.6 385 43.22 16.18 7.817 36.5 22.21 37.69 24.03 0.1244 1.266 0.062 11.54-0.6717 44.93-0.5075 23.15-0.628 42.17-0.6466 42.41-0.019 0.2441-8.57-8.147-18.03-16.8-112.5-102.9-233.3-145.7-375.2-132.8-34.3 3.101-96.3 16.12-134.5 28.19-94.08 29.78-194.4 78.51-331.1 160.8-32.72 19.7-54.32 33.19-205.1 128.1-121.1 76.24-186.9 114.5-258.3 150.1-59.87 29.9-112.6 51.9-157.8 66.17-5.172 2.073-3.623 1.436-3.999-0.0154 0.07195-0.7261 1.953-22.19 1.58-52.13-0.374-29.94 0.8709-47.25 0.8829-50.51l0.8043-20.06 30.81-4.1c40.02-8.056 66.06-15.07 106.8-28.69 88.2-29.5 171.8-66.71 350.7-156.2 107.7-53.89 172.8-85.51 219-106.5 131.4-59.57 227.3-93.57 323.8-114.2zm-13.8 12.71c51.98-11.41 101-15.55 148.9-12.79 108.5 6.26 212 53.61 300 137.1l16.24 16.87-0.9628 42.92c-2.266 24.32-0.5525 48.37-0.7975 48.42-0.244 0.0534-12.63-10.33-18.45-17.27-42.4-50.67-94.9-99.57-140.3-130.6-58.4-39.93-118.8-64.29-180.6-72.83-116-16.01-241.7 22.28-390.8 119.1-61.91 40.2-128.4 89.65-216.6 160.9-14.64 11.84-49 39.66-76.35 61.88-117.5 95.41-166.7 133-234.7 179.2-78.6 53.38-147.2 89.62-213.3 112.7-7.66 2.677-8.197 3.058-11.78 3.699l-1.637 0.5625 0.2422-26.16c0.1684-14.63 1.348-51.58 1.592-71.51l0.3878-28.47 5.029-1.69c55.2-17.73 135.2-53.49 206.6-92.34 78.56-42.71 105.9-59.3 319.2-193.8 156-98.36 248.1-149 342.5-188.6 51.62-21.6 99.72-37.34 145.6-47.4zm-17.38 21.29c38.61-8.268 43.7-8.959 73.82-10.32 84.78-3.818 170.2 22.61 248.4 76.89 43.98 30.52 96 79.09 137.7 128.6l20.08 24.26-1.456 32.17c0.8919 26.74-0.188 64.01-1.276 76.93l2.977 95.41-32.72-70.32c-71-129.6-140-261.3-222-308.8-39.8-23.22-87.4-37.68-131.4-39.83-111.2-5.438-232.2 50.24-393.6 181.1-60.58 49.09-102.3 94.61-257.5 237.1-109.3 100.4-169.9 158.7-233 208.7-81.22 64.47-122.3 97.36-202.9 135.5-14.57 7.006-12.45 14.11-12.32 14.28 0.1305 0.1775 0.1915-20.07 0.1891-22.26-0.0023-2.105 0.4232-31.67 0.7314-68.66 0.3082-36.98 0.9538-58.65 0.914-59-0.03982-0.3437-2.14-1.373 1.147-1.446 70.94-22.38 149-63.58 240.5-127 66.68-46.2 110.3-79.92 244.1-188.7 24.28-19.74 55.8-45.28 70.04-56.69 171.4-137.4 279.3-204.6 390.4-243.3 13.94-4.856 26.58-8.104 57.08-14.64z"/>
</g>
</svg>
