<?xml version="1.0" encoding="UTF-8" standalone="no"?>
<svg id="svg4175" xmlns:rdf="http://www.w3.org/1999/02/22-rdf-syntax-ns#" xmlns="http://www.w3.org/2000/svg" height="24mm" viewBox="0 0 386.22047 85.03937" width="109mm" version="1.1" xmlns:cc="http://creativecommons.org/ns#" xmlns:xlink="http://www.w3.org/1999/xlink" xmlns:dc="http://purl.org/dc/elements/1.1/">
<defs id="defs7">
<linearGradient id="linearGradient4147" y2="507.8" gradientUnits="userSpaceOnUse" x2="411.9" gradientTransform="matrix(.1287 -.003920 .003932 .1314 7.446 10.65)" y1="359.5" x1="291.4">
<stop id="stop4142" stop-color="#c83737" offset="0"/>
<stop id="stop4144" stop-color="#c83737" stop-opacity="0" offset="1"/>
</linearGradient>
</defs>
<path id="text4187" fill="#7c6f91" d="m214.1 2.505v52.16l12 0.000001v-15.66l14.65 15.66h14.55l-19.78-20.32 18.33-17.23h-13.95l-13.81 13.78v-28.4l-12-3e-7zm-31.8 3.959v10.66h-5.969v8.586h5.969v15.92c0 4.735 0.9775 8.099 2.948 10.08 1.989 1.969 5.352 2.954 10.09 2.954h10.29v-8.58h-6.169c-2.056 0-3.429-0.3081-4.12-0.911-0.6964-0.6228-1.045-1.809-1.045-3.549v-15.92l12.37 0.000001v-8.586h-12.37v-10.66l-12-3e-7zm-72.07 9.756c-2.458 0-4.702 0.529-6.738 1.574-2.029 1.032-3.952 2.639-5.759 4.828v-5.5h-12l-0.000001 37.55 12 0.000001v-18.47c0-3.416 0.7101-6.088 2.144-8.011 1.427-1.942 3.397-2.914 5.902-2.914 1.024 0 1.942 0.221 2.747 0.6699 0.8038 0.4221 1.44 1.024 1.909 1.809 0.3616 0.5827 0.6027 1.487 0.7369 2.713 0.1608 1.233 0.2412 3.464 0.2412 6.706v17.5l12.06 0.000001v-22.86c0.00001-5.077-1.126-8.942-3.384-11.6-2.237-2.66-5.52-3.992-9.86-3.992zm42.43 0.000001c-6.477 0-11.58 1.755-15.28 5.265-3.684 3.509-5.533 8.325-5.533 14.45 0 6.237 1.882 11.09 5.633 14.55 3.778 3.442 9.062 5.164 15.85 5.164 2.84 0 5.681-0.2813 8.519-0.8374 2.833-0.5358 5.672-1.34 8.512-2.418v-9.25c-2.794 1.521-5.52 2.66-8.179 3.422-2.639 0.7369-5.22 1.105-7.743 1.105-3.128 0-5.565-0.7032-7.307-2.116-1.748-1.406-2.76-3.516-3.054-6.331h28.06v-3.422c0-5.947-1.775-10.69-5.326-14.25-3.536-3.558-8.251-5.332-14.16-5.332zm123.1 0.000004c-6.477-0.000001-11.56 1.748-15.22 5.232-3.643 3.491-5.465 8.313-5.465 14.48 0 6.17 1.822 10.99 5.465 14.48 3.665 3.491 8.742 5.232 15.22 5.232 6.464 0 11.5-1.742 15.12-5.232 3.636-3.484 5.459-8.313 5.459-14.48 0-6.17-1.822-10.99-5.459-14.48-3.623-3.484-8.662-5.232-15.12-5.232zm52.74 0.000001c-2.304 0-4.415 0.5358-6.338 1.608-1.895 1.079-3.585 2.673-5.064 4.796v-5.5h-12.06v37.55h12.06v-18.47c0-3.509 0.6296-6.202 1.882-8.076 1.246-1.902 3.027-2.846 5.326-2.846 1.835 0 3.108 0.6027 3.823 1.809 0.7168 1.186 1.071 3.852 1.071 8.011v19.58h12.04v-18.44c0.067-3.549 0.7369-6.269 1.942-8.144 1.273-1.875 3.014-2.813 5.29-2.813 1.742 0 3.014 0.6027 3.817 1.809 0.7368 1.186 1.139 3.108 1.139 5.766v1.34c0 0.3148 0 0.6163-0.067 0.9042v19.58h12.05v-22.86c0-5.077-1.071-8.942-3.348-11.6-2.277-2.66-5.558-3.992-9.85-3.992-2.545 0-4.822 0.6163-6.9 1.842-2.076 1.212-3.885 2.974-5.426 5.297-1.005-2.257-2.539-4.01-4.527-5.265-1.989-1.246-4.279-1.875-6.871-1.875zm-175.9 7.976c2.144 0 3.872 0.7032 5.191 2.116 1.34 1.38 2.009 3.215 2.009 5.5l-15.59-0.000001c0.3616-2.465 1.266-4.341 2.72-5.633 1.447-1.32 3.335-1.983 5.665-1.983zm123.2 0.6027c2.619 0 4.615 0.9644 6.001 2.887 1.387 1.902 2.076 4.647 2.076 8.244s-0.69 6.357-2.076 8.28c-1.387 1.902-3.384 2.854-6.001 2.854-2.66 0-4.69-0.9512-6.101-2.854-1.38-1.922-2.076-4.683-2.076-8.28s0.6964-6.344 2.076-8.244c1.413-1.922 3.442-2.887 6.101-2.887z"/>
<path id="path4146" fill="url(#linearGradient4147)" d="m43.37 1.753c-3.86 0.108-7.17 0.727-10.57 1.894-8.73 3.003-15.04 8.543-18.05 15.86-0.81 1.96-8.9 37.47-8.965 39.34-0.1031 2.959 0.2825 5.475 1.215 7.926 2.84 7.467 9.88 12.94 19.34 15.06 2.238 0.4999 10.81 1.402 13.16 1.385 5.742-0.04053 11.11-1.256 15.9-3.603 7.934-4.749 11.41-10.87 14.64-15.95-5.532 0.7395-11.72 1.321-17.01 1.004-3.632 6.702-18.49 10.54-27.35 6.484-5.213-2.524-10.88-6.377-10.56-11.21 0.04339-0.659 1.53-10.54 3.803-20.44 3.941-23.99 7.199-27.89 24.69-28.26 2.345-0.03292 10.15 0.8973 12 1.43 3.34 1.102 6.903 3.319 8.733 5.961 4.07 7.042 1.448 17.59-1.867 24.98-1.46 2.566-4.946 4.152-8.211 3.735-2.971-0.38-4.544-0.2431-5.088-2.585-0.1898-0.8181 0.09745-2.962 0.8867-8.494l1.236-7.656c0.5416-3.292 0.4853-6.006-0.6365-7.69-1.122-1.682-3.071-3.353-5.769-3.27-1.529 0.04657-3.368 0.9635-4.79 1.786-1.422 0.806-2.671 2.22-4.082 3.888l0.6658-5.667-7.826 3.393-3.981 26.74 8.453-0.4195 1.716-13.81c0.1611-3.501 1.856-8.556 5.785-8.865 0.6649-0.02026 1.33 0.1227 1.783 0.3975 0.4669 0.2599 0.8053 0.6391 1.015 1.138 0.1502 0.3706 0.2025 0.9535 0.1567 1.749-0.03188 0.7946-0.218 2.243-0.5587 4.346l-1.347 12.19-0.3946 2.773 0.03188-0.000971c-0.84 7.11 1.14 8.7 10.36 9.49 11.22 0.33 18.57-0.82 21.4-8.49 3.14-7.82 3.49-18.24 3.05-25.86-0.35-7.04-4.31-13.64-11.62-17.07-3.3-1.55-6.29-2.355-11.09-2.985-3.94-0.518-7.26-0.744-10.26-0.66z"/>
</svg>
