<?xml version="1.0" encoding="UTF-8" standalone="no"?>
<svg id="svg2" xmlns:rdf="http://www.w3.org/1999/02/22-rdf-syntax-ns#" xmlns="http://www.w3.org/2000/svg" height="700pt" width="700pt" version="1.0" preserveAspectRatio="xMidYMid meet" xmlns:cc="http://creativecommons.org/ns#" xmlns:dc="http://purl.org/dc/elements/1.1/" viewBox="0 0 700.000000 700.000000">
<defs id="defs12">
<linearGradient id="linearGradient4147" y2="507.8" gradientUnits="userSpaceOnUse" x2="411.9" gradientTransform="matrix(.2217 -.006752 .006772 .2263 30.39 915.6)" y1="359.5" x1="291.4">
<stop id="stop4142" stop-color="#c83737" offset="0"/>
<stop id="stop4144" stop-color="#c83737" stop-opacity="0" offset="1"/>
</linearGradient>
</defs>
<g id="layer1" transform="matrix(3.927 0 0 3.927 .5211 -3458)">
<path id="path4146" d="m92.26 900.3c-6.648 0.186-12.35 1.252-18.21 3.262-15.04 5.172-25.9 14.71-31.09 27.32-1.395 3.376-15.33 64.54-15.44 67.76-0.1776 5.097 0.4866 9.43 2.093 13.65 4.892 12.86 17.02 22.29 33.31 25.94 3.855 0.861 18.62 2.415 22.67 2.386 9.89-0.068 19.14-2.163 27.39-6.206 13.67-8.18 19.65-18.72 25.22-27.47-9.528 1.274-20.19 2.275-29.3 1.729-6.256 11.54-31.85 18.15-47.11 11.17-8.979-4.347-18.74-10.98-18.19-19.31 0.07475-1.135 2.635-18.15 6.55-35.21 6.788-41.32 12.4-48.04 42.53-48.67 4.039-0.0566 17.48 1.546 20.67 2.463 5.753 1.898 11.89 5.717 15.04 10.27 7.01 12.13 2.494 30.3-3.216 43.03-2.515 4.42-8.519 7.151-14.14 6.433-5.117-0.6545-7.827-0.4187-8.764-4.452-0.3269-1.409 0.1678-5.102 1.527-14.63l2.129-13.19c0.9328-5.67 0.8359-10.34-1.096-13.25-1.933-2.897-5.289-5.775-9.936-5.632-2.634 0.0802-5.801 1.66-8.25 3.076-2.449 1.388-4.6 3.824-7.031 6.697l1.147-9.761-13.48 5.844-6.857 46.06 14.56-0.7225 2.956-23.79c0.2775-6.03 3.197-14.74 9.964-15.27 1.145-0.035 2.291 0.2113 3.071 0.6846 0.8042 0.4476 1.387 1.101 1.748 1.96 0.2587 0.6383 0.3488 1.642 0.2699 3.012-0.05495 1.369-0.3755 3.863-0.9623 7.486l-2.32 21-0.6797 4.776 0.05495-0.002c-1.447 12.25 1.964 14.98 17.84 16.35 19.33 0.5684 31.98-1.412 36.86-14.62 5.408-13.47 6.011-31.42 5.253-44.54-0.6028-12.13-7.423-23.49-20.01-29.4-5.684-2.67-10.83-4.056-19.1-5.141-6.786-0.8922-12.5-1.281-17.67-1.137z" fill="url(#linearGradient4147)"/>
</g>
</svg>
